<?xml version="1.0" standalone="no"?>
<!DOCTYPE svg PUBLIC "-//W3C//DTD SVG 1.1//EN" "http://www.w3.org/Graphics/SVG/1.1/DTD/svg11.dtd">
<svg xmlns="http://www.w3.org/2000/svg">
<metadata>Copyright (C) 2019 by original authors @ fontello.com</metadata>
<defs>
<font id="fontello" horiz-adv-x="1000" >
<font-face font-family="fontello" font-weight="400" font-stretch="normal" units-per-em="1000" ascent="850" descent="-150" />
<missing-glyph horiz-adv-x="1000" />
<glyph glyph-name="attachment" unicode="&#xe800;" d="M867 333l-35 35-423 420c-84 83-221 83-304 0-82-81-84-210-8-294 1-1 2-3 4-4l360-358c57-56 150-56 207 0 57 57 57 149 0 206l-206 204c-20 20-53 20-72 0-20-19-20-51 0-71l206-205c17-17 17-45 0-62-17-17-45-17-63 0l-356 354c-44 43-44 114 0 158 44 44 115 44 159 0l424-420 34-34c72-71 72-187 0-257-71-71-187-71-259 0l-448 444c-20 20-52 20-72 0-20-20-20-52 0-72l448-444c111-111 292-111 404 0 111 110 111 290 0 400z" horiz-adv-x="950" />

<glyph glyph-name="camera" unicode="&#xe801;" d="M975 663h150c69 0 125-57 125-125v-563c0-69-56-125-125-125h-1000c-69 0-125 56-125 125v563c0 68 56 125 125 125h150c21 0 43 16 49 35l39 116c7 20 29 36 50 36h425c20 0 42-16 49-36l39-116c6-19 28-35 49-35z m-662-375c0-173 139-313 312-313 173 0 313 140 313 313 0 172-140 312-313 312-173 0-312-140-312-312z m768 162c-24 0-43 20-43 44 0 24 19 44 43 44 24 0 44-20 44-44 0-24-20-44-44-44z m-643-162c0 103 83 187 187 187 104 0 188-84 188-187 0-104-84-188-188-188-104 0-187 84-187 188z" horiz-adv-x="1250" />

<glyph glyph-name="play-button" unicode="&#xe802;" d="M933 600c-67 115-175 198-304 233-129 34-263 17-379-50-115-67-198-175-233-304-34-129-17-263 50-379 67-116 175-198 304-233 43-11 86-17 130-17 86 0 172 23 249 67 115 67 198 175 233 304 34 129 17 263-50 379z m-10-363c-30-113-103-208-204-266-101-59-220-74-333-44-113 30-207 103-266 204-58 101-73 219-43 333 30 112 103 207 204 265 67 39 142 59 218 59 38 0 77-5 114-15 113-30 208-103 266-204 59-101 74-219 44-332z m-183 160l-321 186c-17 9-38 9-55 0-17-10-27-28-27-47v-371c0-20 10-38 27-48 9-4 18-7 27-7 10 0 19 3 27 7l322 186c17 10 27 28 27 47 0 20-10 37-27 47z m-26-49l-319-165c-1 0-1 0-3 0-1 1-1 2-1 2v330c0 0 0 1 1 2 1 0 1 0 2 0 0 0 1 0 1 0l319-165c1 0 1-1 1-2 0-1 0-2-1-2z" horiz-adv-x="1000" />

<glyph glyph-name="file" unicode="&#xe803;" d="M591 820c-9 9-19 17-31 22-11 5-23 7-36 7h-429c-52 0-94-44-94-97v-804c0-53 42-97 94-97h570c52 0 94 44 94 97v657c0 26-9 50-27 68l-141 147z m85-190h-104c-6 0-13 2-17 7-5 5-8 11-8 18l1 109 128-134z m14-682c0-14-12-25-25-25h-570c-13 0-24 11-24 25v804c0 14 11 25 24 25h383l0-122c0-26 10-50 27-69 18-18 42-28 67-28h118v-610z m-25-98h-570c-52 0-95 44-95 98v804c0 54 43 98 95 98h429c13 0 25-3 37-8 11-5 22-12 31-21l140-147c18-19 28-43 28-69v-657c0-54-43-98-95-98z m-570 998c-51 0-93-43-93-96v-804c0-53 42-96 93-96h570c51 0 93 43 93 96v657c0 25-9 50-27 68l-140 147c-9 9-19 16-31 21-11 5-24 7-36 7h-429z m570-926h-570c-14 0-25 12-25 26v804c0 14 11 26 25 26h384v-1l0-122c0-25 9-50 27-68 18-18 41-28 66-28h118v-611c0-14-11-26-25-26z m-570 854c-13 0-24-11-24-24v-804c0-13 11-24 24-24h570c13 0 24 11 24 24v609h-117c-25 0-49 10-67 29-18 18-28 43-28 69l0 121h-382v0z m583-147h-106c-7 0-13 3-18 8-5 5-7 11-7 18l0 111 131-137z m-130 132l0-106c0-6 3-13 7-17 5-5 11-8 17-8h102l-126 131z" horiz-adv-x="760" />

<glyph glyph-name="ios-add-circle-outline" unicode="&#xe804;" d="M677 381h-146v146c0 17-14 31-31 31s-31-14-31-31v-146h-146c-17 0-31-11-31-31s15-31 31-31h146v-146c0-18 13-31 31-31s31 14 31 31v146h146c17 0 31 14 31 31s-14 31-31 31z m-177 321c94 0 182-37 249-103s103-155 103-249-37-182-103-249-155-103-249-103c-94 0-182 37-249 103s-103 155-103 249 37 182 103 249 155 103 249 103m0 54c-224 0-406-182-406-406s182-406 406-406 406 182 406 406-182 406-406 406z" horiz-adv-x="1000" />

<glyph glyph-name="ios-add-circle" unicode="&#xe805;" d="M500 756c-224 0-406-182-406-406s182-406 406-406 406 182 406 406-182 406-406 406z m177-437h-146v-146c0-17-14-31-31-31-9 0-16 4-22 9-6 6-9 14-9 22v146h-146c-8 0-16 3-22 9-5 6-9 13-9 22 0 17 14 31 31 31h146v146c0 17 14 31 31 31s31-14 31-31v-146h146c17 0 31-14 31-31s-14-31-31-31z" horiz-adv-x="1000" />

<glyph glyph-name="ios-arrow-back" unicode="&#xe806;" d="M426 350l248 248c18 18 18 48 0 66-18 19-48 18-67 0l-281-281c-18-18-18-46-1-64l282-283c9-10 22-14 33-14s25 4 34 14c18 18 18 48 0 66l-248 248z" horiz-adv-x="1000" />

<glyph glyph-name="ios-arrow-down" unicode="&#xe807;" d="M500 276l248 248c18 18 48 18 66 0s18-48 0-67l-281-281c-18-18-46-18-64-1l-283 282c-10 9-14 22-14 33s4 25 14 34c18 18 48 18 66 0l248-248z" horiz-adv-x="1000" />

<glyph glyph-name="ios-arrow-forward" unicode="&#xe808;" d="M574 350l-248 248c-18 18-18 48 0 66s48 18 67 0l281-281c18-18 18-46 1-64l-282-283c-9-10-21-14-33-14s-24 4-34 14c-18 18-18 48 0 66l248 248z" horiz-adv-x="1000" />

<glyph glyph-name="ios-briefcase" unicode="&#xe809;" d="M156-25h688c34 0 62 28 62 63v375h-812v-375c0-35 28-63 62-63z m688 625h-16v16c0 8-7 15-15 15h-63c-9 0-16-7-16-15v-16h-54v63c0 34-28 62-63 62h-234c-35 0-63-28-63-62v-63h-54v16c0 8-7 15-16 15h-62c-9 0-16-7-16-15v-16h-16c-34 0-62-28-62-62v-79h812v79c0 34-28 62-62 62z m-219 0h-250v55c0 8 7 15 16 15h218c9 0 16-7 16-15v-55z" horiz-adv-x="1000" />

<glyph glyph-name="ios-calendar" unicode="&#xe80a;" d="M828 663h-78v-47c0-9-7-16-16-16h-31c-8 0-15 7-15 16v47h-375v-47c0-9-7-16-16-16h-31c-9 0-16 7-16 16v47h-78c-43 0-78-36-78-79v-531c0-43 35-78 78-78h656c43 0 78 35 78 78v531c0 43-35 79-78 79z m16-586c0-22-18-39-39-39h-610c-21 0-39 17-39 39v351c0 9 7 16 16 16h656c9 0 16-7 16-16v-351z m-531 632c0 9-7 16-16 16h-31c-9 0-16-7-16-16v-46h63v46z m437 0c0 9-7 16-16 16h-31c-8 0-15-7-15-16v-46h62v46z" horiz-adv-x="1000" />

<glyph glyph-name="ios-chatboxes" unicode="&#xe80b;" d="M832 517h-433c-41 0-74-33-74-74v-302c0-41 33-74 74-74h248c5 0 11-2 15-6l123-114c6-6 18-3 18 6v99c0 12 7 15 19 15h2c41 0 82 33 82 75v301c0 41-33 74-74 74z m-491 48h346v128c0 35-28 63-64 63h-466c-35 0-63-28-63-63v-323c0-35 28-64 63-64h120v195c0 36 29 64 64 64z" horiz-adv-x="1000" />

<glyph glyph-name="ios-checkbox-standard" unicode="&#xe80c;" d="M500 783c116 0 224-45 306-127 82-82 127-190 127-306 0-116-45-224-127-306-82-82-190-127-306-127-116 0-224 45-306 127-82 82-127 190-127 306 0 116 45 224 127 306 82 82 190 127 306 127z m0 67c-276 0-500-224-500-500 0-276 224-500 500-500 276 0 500 224 500 500 0 276-224 500-500 500z" horiz-adv-x="1000" />

<glyph glyph-name="ios-checkmark-circle" unicode="&#xe80d;" d="M500 756c-224 0-406-182-406-406s182-406 406-406 406 182 406 406-182 406-406 406z m208-294l-261-262h0c-4-3-13-11-23-11-7 0-16 4-23 11l-109 110c-3 3-3 8 0 11l35 35c1 1 3 2 5 2 2 0 4-1 6-2l86-87 239 240c1 2 3 2 5 2 2 0 4 0 5-2l35-35c3-4 3-9 0-12z" horiz-adv-x="1000" />

<glyph glyph-name="ios-checkmark" unicode="&#xe80e;" d="M708 473l-34 36c-1 1-4 2-6 2-2 0-4-1-5-2l-238-240-87 86c-2 2-4 3-6 3-1 0-3-1-5-3l-35-34c-3-4-3-8 0-12l110-109c7-7 15-11 22-11 11 0 20 8 23 11h0l261 262c3 3 3 8 0 11z" horiz-adv-x="1000" />

<glyph glyph-name="ios-close-circle" unicode="&#xe80f;" d="M500 756c-224 0-406-182-406-406s182-406 406-406 406 182 406 406-182 406-406 406z m103-553l-103 103-103-103c-12-12-32-12-44 0-6 6-9 14-9 22 0 8 3 16 9 22l103 103-103 103c-6 6-9 14-9 22 0 8 3 16 9 22 12 12 32 12 44 0l103-103 103 103c12 12 32 12 44 0 12-12 12-32 0-44l-103-103 103-103c12-12 12-32 0-44-12-12-32-12-44 0z" horiz-adv-x="1000" />

<glyph glyph-name="ios-create" unicode="&#xe810;" d="M790 682l-395-394c-3-3-4-7-4-11v-52c0-9 7-16 15-16h51c5 0 9 2 12 5l394 394c6 7 6 16 0 22l-51 52c-6 6-16 6-22 0z m139 37l-28 28-1 1c-6 5-14 8-22 8-9 0-17-3-23-8l-22-23c-3-3-3-8 0-11l21-20 42-42c3-4 8-4 11 0l22 22c6 6 9 14 9 22 0 9-4 17-9 23z m-441-537c-6-6-14-9-22-9h-81c-17 0-31 14-31 31v81c0 8 3 16 9 22l2 2 288 288c5 5 2 13-5 13h-471c-63 0-114-51-114-114v-438c0-63 51-114 114-114h500c63 0 115 51 115 114v408c0 7-9 11-13 6l-289-288-2-2z" horiz-adv-x="1000" />

<glyph glyph-name="ios-heart-empty" unicode="&#xe811;" d="M688 741h-2c-78 0-146-41-186-102-39 61-108 102-185 102h-2c-121-1-219-100-219-221 0-72 31-175 93-259 118-161 313-302 313-302s195 141 313 302c62 84 93 187 93 259 0 121-98 220-218 221z m81-448c-83-114-210-219-269-265-59 46-185 151-269 265-57 78-83 170-83 227 0 44 18 86 49 117 31 31 72 48 116 49h2c28 0 55-7 80-21 24-14 45-33 59-56 11-15 28-25 46-25s36 10 46 25c15 23 36 42 60 56 24 14 52 21 80 21h2c43-1 85-18 116-49 31-31 48-73 48-117 0-57-26-149-83-227z" horiz-adv-x="1000" />

<glyph glyph-name="ios-heart" unicode="&#xe812;" d="M688 741h-2c-78 0-146-41-186-102-39 61-108 102-185 102h-2c-121-1-219-100-219-221 0-72 31-175 93-259 118-161 313-302 313-302s195 141 313 302c62 84 93 187 93 259 0 121-98 220-218 221z" horiz-adv-x="1000" />

<glyph glyph-name="ios-information-circle" unicode="&#xe813;" d="M500 756c-224 0-406-182-406-406s182-406 406-406 406 182 406 406-182 406-406 406z m37-593h-74v281h74v-281z m-37 312c-22 0-40 16-40 39s18 39 40 39c22 0 40-17 40-39s-18-39-40-39z" horiz-adv-x="1000" />

<glyph glyph-name="ios-lock" unicode="&#xe814;" d="M734 475h-46v91c0 103-82 189-185 190-105 2-190-83-190-187v-94h-47c-43 0-78-35-78-78v-375c0-43 35-78 78-78h468c43 0 79 35 79 78v375c0 43-36 78-79 78z m-207-244v-134c0-15-11-27-26-28-15-1-28 12-28 27v135c-23 11-38 35-35 62 2 30 27 55 58 57 36 2 67-27 67-62 0-25-15-47-36-57z m106 244h-266v94c0 35 14 68 39 94s59 39 94 39 69-14 94-39 39-59 39-94v-94z" horiz-adv-x="1000" />

<glyph glyph-name="ios-mail" unicode="&#xe815;" d="M900 562l-210-214c-2-1-2-4 0-5l147-157c10-10 10-26 0-36-5-5-12-7-18-7s-13 2-18 7l-147 156c-1 2-4 2-6 0l-35-36c-30-30-70-47-112-47-44 0-85 18-115 48l-34 35c-2 2-4 2-6 0l-146-156c-5-5-12-7-18-7s-13 2-18 7c-10 10-10 26 0 36l147 157c1 1 1 4 0 5l-211 214c-2 3-6 1-6-2v-429c0-34 28-62 62-62h688c34 0 62 28 62 62v429c0 3-4 5-6 2z m-400-288c29 0 56 11 76 32l307 312c-11 8-24 13-39 13h-688c-15 0-28-5-39-13l307-312c20-21 47-32 76-32z" horiz-adv-x="1000" />

<glyph glyph-name="ios-more" unicode="&#xe816;" d="M500 424c-41 0-75-33-75-74s34-74 75-74 74 33 74 74-33 74-74 74z m-301 0c-41 0-74-33-74-74s33-74 74-74 74 33 74 74-33 74-74 74z m602 0c-41 0-74-33-74-74s33-74 74-74 74 33 74 74-33 74-74 74z" horiz-adv-x="1000" />

<glyph glyph-name="ios-options" unicode="&#xe817;" d="M585 116c12 27 39 47 71 47s60-20 72-47h147c17 0 31-14 31-32s-14-31-31-31h-147c-12-27-40-47-72-47s-59 20-71 47h-460c-17 0-31 14-31 31s14 32 31 32h460z m-313 265c12 28 40 47 72 47s59-19 71-47h460c17 0 31-14 31-31s-14-31-31-31h-460c-12-28-39-47-71-47s-60 19-72 47h-147c-17 0-31 14-31 31s14 31 31 31h147z m313 266c12 27 39 47 71 47s60-20 72-47h147c17 0 31-14 31-31s-14-32-31-32h-147c-12-27-40-46-72-46s-59 19-71 46h-460c-17 0-31 14-31 32s14 31 31 31h460z" horiz-adv-x="1000" />

<glyph glyph-name="ios-paper" unicode="&#xe818;" d="M242 694v-629c0-15-12-27-27-27s-27 12-27 27v566h-32c-34 0-62-28-62-62v-563c0-34 28-62 62-62h690c33 0 60 27 60 60v690c0 34-28 62-62 62l-543-4c-35 0-59-24-59-58z m129-63h164c15 0 28-12 28-27s-13-27-28-27h-164c-15 0-27 12-27 27s12 27 27 27z m0-312h289c15 0 28-13 28-28s-13-27-28-27h-289c-15 0-27 12-27 27s12 28 27 28z m383-211h-383c-15 0-27 12-27 27s12 28 27 28h383c15 0 27-13 27-28s-12-27-27-27z m0 312h-383c-15 0-27 13-27 28s12 27 27 27h383c15 0 27-12 27-27s-12-28-27-28z" horiz-adv-x="1000" />

<glyph glyph-name="ios-people" unicode="&#xe819;" d="M682 196c-22 8-58 9-74 15-10 4-28 9-34 15-5 7-5 56-5 56s13 13 19 27c6 15 10 54 10 54s12-5 17 20c5 23 13 34 11 51-3 16-11 12-11 12s11 17 11 73c0 59-44 116-126 116-82 0-127-58-127-116 0-56 11-73 11-73s-9 4-11-12c-2-17 6-28 10-51 6-26 18-20 18-20s4-39 10-54c5-14 19-27 19-27s0-49-6-56-23-11-34-15c-15-6-51-7-73-15-22-8-89-43-89-131h543c0 88-67 124-89 131z m-409 95s47 2 66 19c-31 46-14 99-20 149-7 50-35 80-92 80h0c-55 0-85-30-91-80-6-50 11-109-20-149 19-17 66-17 66-17s2-28-2-32c-4-5-16-10-24-11-17-4-35-9-50-14-16-5-44-34-44-73h156c5 16 34 44 63 58 17 9 35 9 48 10 0 0 8 12-17 17 0 0-33 8-37 13-4 4-2 30-2 30z m454 0s-47 2-66 19c31 46 14 99 20 149 7 50 35 80 92 80h0c55 0 85-30 91-80 6-50-11-109 20-149-19-17-66-17-66-17s-2-28 2-32c4-5 16-10 24-11 17-4 35-9 50-14 16-5 45-34 45-73h-157c-5 16-34 44-63 58-17 9-35 9-48 10 0 0-7 12 17 17 0 0 34 8 37 13 4 4 2 30 2 30z" horiz-adv-x="1000" />

<glyph glyph-name="ios-pricetag" unicode="&#xe81a;" d="M850 756h-240c-7 0-15-3-20-8l-480-480c-22-22-22-57 0-79l229-229c22-22 57-22 79 0l480 480c5 5 8 12 8 20v240c0 31-25 56-56 56z m-93-218c-40-4-73 29-69 69 3 29 26 52 55 55 40 4 73-29 69-69-3-29-26-52-55-55z" horiz-adv-x="1000" />

<glyph glyph-name="ios-search" unicode="&#xe81b;" d="M866 29l-208 211c40 51 65 116 65 186 0 165-134 299-299 299s-299-134-299-299 134-299 299-299c72 0 137 25 189 67l207-209c6-7 15-10 23-10 8 0 16 3 22 9 13 12 13 32 1 45z m-442 163c-63 0-122 24-166 68-44 45-69 104-69 166 0 63 25 122 69 166 44 44 103 69 166 69s122-25 166-69c44-44 69-103 69-166 0-62-25-121-69-166-44-44-103-68-166-68z" horiz-adv-x="1000" />

<glyph glyph-name="ios-settings" unicode="&#xe81c;" d="M813 350c0 41 26 76 62 90-10 40-25 78-46 112-13-6-26-9-39-9-25 0-50 10-69 28-29 29-35 72-20 108-33 21-71 36-111 46-14-36-49-62-90-62s-76 26-90 62c-40-10-78-25-112-46 16-36 10-79-19-108-19-18-44-28-69-28-13 0-26 3-39 9-21-35-36-72-46-112 36-14 62-49 62-90 0-41-26-76-62-90 10-40 26-78 47-112 12 6 25 8 39 8 24 0 49-9 68-28 29-29 35-72 20-107 34-21 71-37 111-46 14 36 49 62 90 62s76-26 90-62c40 9 77 25 111 46-15 35-9 78 20 107 19 19 44 28 69 28 13 0 26-2 39-8 20 34 36 72 46 112-36 14-62 49-62 90z m-311-156c-87 0-156 70-156 156s69 156 156 156 156-70 156-156-70-156-156-156z" horiz-adv-x="1000" />

<glyph glyph-name="ios-star-half" unicode="&#xe81d;" d="M904 475h-287l-87 261c-5 12-16 20-30 20s-25-8-30-20l-87-261h-289c-17 0-31-14-31-31 0-2 0-4 0-5 1-7 4-15 13-23l236-166-90-264c-5-12 0-26 10-35 6-4 11-7 18-7 6 0 14 3 20 7l230 164 231-164c5-4 13-7 19-7 7 0 12 3 17 7 11 9 16 23 11 35l-90 264 234 168 5 5c5 5 11 13 11 21 0 17-16 31-34 31z m-92-69l-156-112c-20-14-28-39-20-62l59-171c2-7-6-13-12-9l-151 108-1 0c-19 14-31 36-31 60v409c0 4 6 5 7 1l58-172c8-23 29-38 52-38h190c8 0 11-9 5-14z" horiz-adv-x="1000" />

<glyph glyph-name="ios-star-outline" unicode="&#xe81e;" d="M904 475h-287l-87 261c-5 12-16 20-30 20s-25-8-30-20l-87-261h-289c-17 0-31-14-31-31 0-2 0-4 0-5 1-7 4-15 13-23l236-166-90-264c-5-12 0-26 10-35 6-4 11-7 18-7 6 0 14 3 20 7l230 164 231-164c5-4 13-7 19-7 7 0 12 3 17 7 11 9 16 23 11 35l-90 264 234 168 5 5c5 5 11 13 11 21 0 17-16 31-34 31z m-248-181c-20-14-28-39-20-62l59-171c2-7-6-13-12-9l-151 108c-10 7-21 10-32 10-11 0-22-3-32-10l-151-108c-6-4-14 2-12 9l59 171c8 24 0 49-20 63l-158 111c-7 5-4 15 4 15h193c23 0 44 15 52 37l57 172c3 7 13 7 15 0l58-172c8-22 28-37 52-37h190c8 0 11-10 4-14l-155-113z" horiz-adv-x="1000" />

<glyph glyph-name="ios-star" unicode="&#xe81f;" d="M904 475h-287l-87 261c-5 12-16 20-30 20s-25-8-30-20l-87-261h-289c-17 0-31-14-31-31 0-2 0-4 0-5 1-7 4-15 13-23l236-166-90-264c-5-12 0-26 10-35 6-4 11-7 18-7 6 0 14 3 20 7l230 164 231-164c5-4 13-7 19-7 7 0 12 3 17 7 11 9 16 23 11 35l-90 264 234 168 5 5c5 5 11 13 11 21 0 17-16 31-34 31z" horiz-adv-x="1000" />

<glyph glyph-name="logo-facebook" unicode="&#xe820;" d="M834 725h-668c-22 0-41-19-41-41v-668c0-22 19-41 41-41h334v297h-90v109h90v81c0 97 67 150 154 150 41 0 86-3 96-5v-101h-69c-47 0-56-22-56-55v-70h112l-14-109h-98v-297h209c22 0 41 19 41 41v668c0 22-19 41-41 41z" horiz-adv-x="1000" />

<glyph glyph-name="logo-instagram" unicode="&#xe821;" d="M656 663c42 0 81-17 111-46s46-69 46-111v-312c0-42-17-81-46-111s-69-45-111-45h-312c-42 0-81 16-111 45s-45 69-45 111v312c0 42 16 81 45 111s69 46 111 46h312m0 62h-312c-121 0-219-98-219-219v-312c0-121 98-219 219-219h312c121 0 219 98 219 219v312c0 121-98 219-219 219z m47-219c-26 0-47 21-47 47s21 47 47 47c26 0 47-21 47-47s-21-47-47-47z m-203-31c69 0 125-56 125-125s-56-125-125-125-125 56-125 125 56 125 125 125m0 63c-103 0-187-84-187-188s84-187 187-187 188 84 188 187-84 188-188 188z" horiz-adv-x="1000" />

<glyph glyph-name="logo-twitter" unicode="&#xe822;" d="M961 636c-34-15-70-25-109-30 39 24 70 61 84 105-37-22-77-38-121-46-34 37-83 60-138 60-104 0-189-85-189-189 0-15 2-30 5-43-157 7-296 83-390 197-16-27-25-60-25-95 0-65 33-123 84-157-31 1-60 9-86 23v-2c0-92 65-168 152-186-16-4-33-6-50-6-12 0-24 1-35 3 24-75 94-130 176-131-64-51-146-81-235-81-15 0-30 1-45 3 84-55 183-86 290-86 348 0 538 289 538 539 0 8 0 16 0 24 37 27 69 60 94 98z" horiz-adv-x="1000" />

<glyph glyph-name="md-apps" unicode="&#xe823;" d="M188 506h156v157h-156v-157z m234-468h156v156h-156v-156z m-234 0h156v156h-156v-156z m0 234h156v156h-156v-156z m234 0h156v156h-156v-156z m234 391v-157h157v157h-157z m-234-157h156v157h-156v-157z m234-234h157v156h-157v-156z m0-234h157v156h-157v-156z" horiz-adv-x="1000" />

<glyph glyph-name="md-more" unicode="&#xe824;" d="M578 584c0 43-35 79-78 79s-78-36-78-79 35-78 78-78 78 35 78 78z m0-468c0 43-35 78-78 78s-78-35-78-78 35-78 78-78 78 35 78 78z m0 234c0 43-35 78-78 78s-78-35-78-78 35-78 78-78 78 35 78 78z" horiz-adv-x="1000" />

<glyph glyph-name="picture-1" unicode="&#xe825;" d="M1219 819c-20 21-44 31-73 31h-1042c-28 0-53-10-73-31-21-20-31-44-31-73v-792c0-29 10-53 31-73 20-21 45-31 73-31h1042c29 0 53 10 73 31 21 20 31 44 31 73v792c0 29-10 53-31 73z m-52-865c0-6-2-10-6-15-5-4-9-6-15-6h-1042c-5 0-10 2-14 6-5 5-7 9-7 15v792c0 6 2 10 7 15 4 4 9 6 14 6h1042c6 0 10-2 15-6 4-5 6-9 6-15v-792z m-875 479c34 0 64 13 88 37 25 24 37 54 37 88 0 35-12 65-37 89-24 24-54 36-88 36-35 0-65-12-89-36-24-24-36-54-36-89 0-34 12-64 36-88 24-24 54-37 89-37z m187-187l-104 104-208-208v-125h916v291l-270 271-334-333z" horiz-adv-x="1250" />

<glyph glyph-name="ios-log-out" unicode="&#xe826;" d="M609 123c-15 0-27-12-27-27 0-19-16-35-35-35h-363c-20 0-36 16-36 35v508c0 19 16 35 36 35h363c19 0 35-16 35-35 0-15 12-27 27-27s28 12 28 27c0 50-40 90-90 90h-363c-50 0-90-40-90-90v-508c0-49 40-90 90-90h363c50 0 90 41 90 90 0 15-13 27-28 27z m119 418c-5 5-12 8-19 8-7 0-14-2-19-8-11-10-11-28 0-38l127-126h-501c-15 0-27-12-27-27s12-27 27-27h502l-125-126c-10-10-10-28 0-38l1-1c5-4 12-7 19-7 7 0 14 3 19 8l161 161c9 8 13 18 13 28 0 11-4 21-13 29l-165 164z" horiz-adv-x="1000" />

<glyph glyph-name="ios-hand" unicode="&#xe827;" d="M771 621c-22 0-41-18-41-40v-214c0-9-8-17-17-17s-18 8-18 17v315c0 22-18 41-41 41-23 0-41-19-41-41v-247c0-10-8-17-17-17s-18 7-18 17v281c0 22-18 40-41 40-23 0-41-18-41-40v-315c0-10-8-17-18-17s-17 7-17 17v247c0 23-19 41-41 41-23 0-41-18-41-41v-426l-55 46c-51 45-94 63-129 31-24-23 13-60 52-104 38-42 137-180 222-229 0 0 32-22 79-22h112c90 0 153 74 153 182v455c0 22-19 40-42 40z" horiz-adv-x="1000" />

<glyph glyph-name="user" unicode="&#xe828;" d="M500 850a500 500 0 1 1 500-500 500 500 0 0 1-500 500z m330-792h-660a14 14 0 0 0-14 15 161 161 0 0 0 122 157l110 27 6 25c-76 13-115 36-116 37a14 14 0 0 0-2 24c1 0 52 42 52 189 0 161 118 215 172 215 42 0 57-8 78-28h8c57 0 86-63 86-187 0-147 52-189 52-189a15 15 0 0 0 6-13 14 14 0 0 0-7-11c-2-1-41-24-117-37l6-25 110-28a161 161 0 0 0 123-156 14 14 0 0 0-15-15z" horiz-adv-x="1000" />
</font>
</defs>
</svg>
