<svg viewBox="0 0 19 20" xmlns="http://www.w3.org/2000/svg">
<path d="M17.3301 10.3324L16.6374 9.64495L8.17273 1.24777C6.49571 -0.415925 3.76684 -0.415925 2.08982 1.24777C0.466192 2.85851 0.419006 5.44395 1.93807 7.11666C1.96133 7.14633 1.98238 7.17688 2.00963 7.20369L9.2197 14.3569C10.3617 15.4892 12.2195 15.4894 13.3613 14.3569C14.5035 13.2238 14.5035 11.3805 13.362 10.2478L9.23477 6.1536C8.836 5.75779 8.1889 5.75801 7.79014 6.1536C7.39093 6.5492 7.39071 7.19072 7.79014 7.58676L11.9171 11.681C12.2627 12.024 12.2627 12.5816 11.9169 12.924C11.5711 13.2671 11.009 13.2671 10.6639 12.924L3.53357 5.84987C2.65274 4.97582 2.65296 3.55454 3.53357 2.68027C4.41483 1.80666 5.84728 1.80666 6.7281 2.68027L15.1925 11.0779L15.8857 11.7651C17.3155 13.1836 17.3155 15.4919 15.8857 16.9101C14.4561 18.3285 12.1296 18.3285 10.6996 16.9101L1.74356 8.02587C1.3448 7.63027 0.69814 7.63005 0.299155 8.02587C-0.0998292 8.42146 -0.0996076 9.06321 0.299155 9.45902L9.25493 18.3434C11.4814 20.5522 15.1037 20.5526 17.3301 18.3441C19.5567 16.1349 19.5565 12.5409 17.3301 10.3324Z"/>
</svg>
