<svg width="25" height="20" viewBox="0 0 25 20" fill="none" xmlns="http://www.w3.org/2000/svg">
<path fill-rule="evenodd" clip-rule="evenodd" d="M19.5 3.75H22.5C23.875 3.75 25 4.875 25 6.25V17.5C25 18.875 23.875 20 22.5 20H2.5C1.125 20 0 18.875 0 17.5V6.25C0 4.875 1.125 3.75 2.5 3.75H5.5C5.9125 3.75 6.3565 3.43 6.48725 3.03875L7.26275 0.7115C7.393 0.32 7.8375 0 8.25 0H16.75C17.1625 0 17.6065 0.32 17.7372 0.71125L18.5128 3.0385C18.643 3.43 19.0875 3.75 19.5 3.75ZM6.25 11.25C6.25 14.7017 9.04825 17.5 12.5 17.5C15.9513 17.5 18.75 14.7017 18.75 11.25C18.75 7.7985 15.9513 5 12.5 5C9.04825 5 6.25 7.7985 6.25 11.25ZM21.625 7.99825C21.142 7.99825 20.75 7.60675 20.75 7.12325C20.75 6.64025 21.142 6.24825 21.625 6.24825C22.1085 6.24825 22.5 6.64025 22.5 7.12325C22.5 7.60675 22.1082 7.99825 21.625 7.99825ZM8.75 11.25C8.75 9.1795 10.4288 7.5 12.5 7.5C14.5708 7.5 16.25 9.1795 16.25 11.25C16.25 13.3212 14.5708 15 12.5 15C10.4288 15 8.75 13.3212 8.75 11.25Z" fill="#C8C7CC"/>
</svg>
