<svg viewBox="0 0 19 25" xmlns="http://www.w3.org/2000/svg">
<path d="M14.7777 0.744925C14.5567 0.514364 14.2977 0.334148 14.0078 0.209231C13.718 0.0843555 13.4117 0.0209942 13.0977 0.0209942H2.38469C1.08133 0.0209942 0.0209961 1.11615 0.0209961 2.46223V22.5378C0.0209961 23.8839 1.08137 24.979 2.38469 24.979H16.6166C17.92 24.979 18.9803 23.8839 18.9803 22.5378V6.13433C18.9803 5.48703 18.7376 4.87718 18.2967 4.41707L14.7777 0.744925ZM16.8939 5.51037H14.3067C14.1404 5.51037 13.9841 5.44349 13.8666 5.32205C13.7492 5.20058 13.6845 5.03918 13.6846 4.86748L13.6865 2.16344L16.8939 5.51037ZM17.2387 22.5379C17.2387 22.8926 16.9602 23.1803 16.6166 23.1803H2.38469C2.04116 23.1803 1.76267 22.8926 1.76267 22.5379V2.46223C1.76267 2.10742 2.04116 1.8198 2.38469 1.8198H11.9451L11.943 4.86618C11.9425 5.5186 12.1882 6.13202 12.6348 6.59356C13.0813 7.05506 13.675 7.30918 14.3067 7.30918H17.2387V22.5379Z" />
<path d="M16.6159 25H2.38403C1.06948 25 0 23.8955 0 22.5378V2.46223C0 1.10456 1.06948 0 2.38403 0H13.097C13.4138 0 13.7226 0.0638652 14.015 0.189832C14.3073 0.315841 14.5686 0.497653 14.7914 0.730145L18.3104 4.40225C18.7551 4.86626 19 5.48136 19 6.13429V22.5378C19 23.8955 17.9305 25 16.6159 25ZM2.38403 0.0419889C1.09188 0.0419889 0.0406553 1.1277 0.0406553 2.46223V22.5378C0.0406553 23.8723 1.09188 24.958 2.38403 24.958H16.6159C17.9081 24.958 18.9593 23.8723 18.9593 22.5378V6.13433C18.9593 5.49253 18.7186 4.88789 18.2815 4.43181L14.7625 0.759706C14.5435 0.53116 14.2867 0.352497 13.9994 0.22863C13.7119 0.104762 13.4084 0.0419889 13.097 0.0419889H2.38403ZM16.6159 23.2013H2.38403C2.02984 23.2013 1.74167 22.9037 1.74167 22.5379V2.46223C1.74167 2.09642 2.02984 1.79881 2.38403 1.79881H11.9648V1.8198L11.9627 4.86618C11.9622 5.51298 12.2057 6.12115 12.6485 6.5787C13.0911 7.03621 13.6798 7.28819 14.306 7.28819H17.2583V22.5379C17.2583 22.9037 16.9702 23.2013 16.6159 23.2013ZM2.38403 1.84079C2.05224 1.84079 1.78233 2.1196 1.78233 2.46223V22.5379C1.78233 22.8805 2.05224 23.1593 2.38403 23.1593H16.6159C16.9477 23.1593 17.2177 22.8805 17.2177 22.5379V7.33018H14.3061C13.669 7.33018 13.0701 7.07383 12.6197 6.60839C12.1693 6.1429 11.9215 5.52419 11.922 4.86614L11.9242 1.84075H2.38403V1.84079ZM16.9419 5.53137H14.3061C14.1344 5.53137 13.973 5.4623 13.8516 5.33692C13.7303 5.21146 13.6636 5.04476 13.6637 4.86748L13.6656 2.11242L16.9419 5.53137ZM13.7062 2.21445L13.7043 4.86752C13.7042 5.03359 13.7668 5.18975 13.8804 5.30723C13.9941 5.42472 14.1453 5.48938 14.3061 5.48938H16.8445L13.7062 2.21445Z" />
</svg>
