<svg width="25" height="20" viewBox="0 0 25 20" fill="none" xmlns="http://www.w3.org/2000/svg">
<path d="M24.3877 0.611893C23.9798 0.203949 23.4895 0 22.9164 0H2.08332C1.51042 0 1.02011 0.203903 0.611893 0.611893C0.203903 1.01993 0 1.51024 0 2.08318V17.9163C0 18.4894 0.203903 18.9797 0.611893 19.3877C1.02011 19.7957 1.51042 19.9997 2.08332 19.9997H22.9167C23.4895 19.9997 23.9799 19.7957 24.3879 19.3877C24.7958 18.9798 25 18.4894 25 17.9163V2.08318C25 1.51024 24.7958 1.01993 24.3877 0.611893ZM23.333 17.9163C23.333 18.0293 23.292 18.1267 23.2095 18.2094C23.127 18.2915 23.0293 18.3327 22.9164 18.3327H2.08332C1.97053 18.3327 1.87285 18.2915 1.79039 18.2094C1.70798 18.1267 1.66671 18.0293 1.66671 17.9163V2.083C1.66671 1.97017 1.70785 1.87271 1.79039 1.79007C1.87289 1.70785 1.97058 1.66657 2.08332 1.66657H22.9167C23.0294 1.66657 23.1271 1.70785 23.2095 1.79007C23.2917 1.87271 23.333 1.97017 23.333 2.083V17.9163Z" fill="#C8C7CC"/>
<path d="M5.83358 8.33308C6.52811 8.33308 7.11834 8.09014 7.60449 7.60398C8.09051 7.11782 8.33359 6.52764 8.33359 5.83329C8.33359 5.13871 8.09038 4.54853 7.60449 4.06232C7.11834 3.57635 6.52806 3.33327 5.83358 3.33327C5.13914 3.33327 4.54895 3.57635 4.06279 4.06232C3.57682 4.54848 3.33374 5.13867 3.33374 5.83329C3.33374 6.52764 3.57668 7.11796 4.06279 7.60398C4.54895 8.09 5.13914 8.33308 5.83358 8.33308Z" fill="#C8C7CC"/>
<path d="M9.5834 12.083L7.50004 9.99985L3.3335 14.1663V16.6665H21.6667V10.8332L16.2501 5.41642L9.5834 12.083Z" fill="#C8C7CC"/>
</svg>
