<svg viewBox="0 0 25 25" fill="none" xmlns="http://www.w3.org/2000/svg">
<g clip-path="url(#clip0)">
<path d="M23.3203 6.25489C21.6504 3.36426 18.9599 1.29395 15.7324 0.429691C12.5097 -0.434567 9.14061 0.00976927 6.24998 1.67969C3.36424 3.34962 1.29393 6.04493 0.42967 9.26759C-0.434588 12.4902 0.00974828 15.8594 1.67967 18.75C3.34959 21.6406 6.0449 23.7061 9.26756 24.5703C10.3418 24.8584 11.4355 25 12.5195 25C14.6826 25 16.8213 24.4336 18.7451 23.3203C21.6357 21.6504 23.7012 18.9551 24.5654 15.7324C25.4346 12.5098 24.9902 9.14063 23.3203 6.25489ZM23.0713 15.332C22.3144 18.1543 20.5029 20.5176 17.9687 21.9824C15.4394 23.4424 12.4853 23.833 9.65819 23.0762C6.83592 22.3194 4.47264 20.5078 3.0078 17.9736C1.54295 15.4395 1.16697 12.4902 1.92381 9.6631C2.68065 6.84083 4.49217 4.48243 7.02635 3.01758C8.71092 2.04102 10.5859 1.54786 12.4805 1.54786C13.4326 1.54786 14.3896 1.66993 15.332 1.92383C18.1543 2.68067 20.5176 4.49219 21.9824 7.02637C23.4424 9.55567 23.833 12.5098 23.0713 15.332Z" fill="black"/>
<path d="M18.4961 11.3232L10.4639 6.68457C10.0391 6.44043 9.52637 6.44043 9.10156 6.68457C8.67676 6.92871 8.42285 7.37305 8.42285 7.86133V17.1387C8.42285 17.6318 8.67676 18.0713 9.10156 18.3154C9.3164 18.4375 9.55078 18.501 9.78027 18.501C10.0146 18.501 10.249 18.4375 10.459 18.3154L18.4912 13.6768C18.916 13.4326 19.1699 12.9883 19.1699 12.4951C19.1748 12.0068 18.9209 11.5674 18.4961 11.3232ZM17.8516 12.5488L9.86816 16.665C9.8584 16.6699 9.83887 16.6846 9.80957 16.665C9.78027 16.6455 9.78027 16.6309 9.78027 16.6162V8.38379C9.78027 8.37402 9.78027 8.35449 9.80957 8.33496C9.81933 8.33008 9.83398 8.3252 9.83887 8.3252C9.85351 8.3252 9.86328 8.33008 9.86816 8.33496L17.8516 12.4512C17.8613 12.4561 17.8808 12.4707 17.8808 12.5C17.8808 12.5293 17.8613 12.5439 17.8516 12.5488Z" fill="black"/>
</g>
<defs>
<clipPath id="clip0">
<rect fill="white"/>
</clipPath>
</defs>
</svg>
