<svg xmlns="http://www.w3.org/2000/svg" viewBox="0 0 300 300">
    <title>user</title>
    <path d="M150,0A150,150,0,1,0,300,150,150,150,0,0,0,150,0Zm99,237.47H51a4.31,4.31,0,0,1-4.3-4.31,48.32,48.32,0,0,1,36.64-47l33-8.25,1.9-7.61c-22.89-3.82-34.49-10.67-35-11a4.3,4.3,0,0,1-.36-7.13c.11-.09,15.5-12.79,15.5-56.83,0-48.31,35.48-64.57,51.66-64.57,12.47,0,17.11,2.63,23.29,8.61h2.54c17.14,0,25.83,18.83,25.83,56,0,44,15.38,56.74,15.54,56.86a4.37,4.37,0,0,1,1.64,3.69,4.32,4.32,0,0,1-2.08,3.43c-.52.3-12.23,7.12-35,11l1.9,7.62,33,8.25a48.32,48.32,0,0,1,36.65,47A4.33,4.33,0,0,1,249,237.47Z" transform="translate(0)"/>
</svg>
